<?xml version="1.0" encoding="utf-8"?>
<!-- Generator: Adobe Illustrator 16.0.0, SVG Export Plug-In . SVG Version: 6.00 Build 0)  -->
<!DOCTYPE svg PUBLIC "-//W3C//DTD SVG 1.1//EN" "http://www.w3.org/Graphics/SVG/1.1/DTD/svg11.dtd">
<svg version="1.1" id="Layer_1" xmlns="http://www.w3.org/2000/svg" xmlns:xlink="http://www.w3.org/1999/xlink" x="0px" y="0px"
	 width="95px" height="95px" viewBox="0 0 95 95" enable-background="new 0 0 95 95" xml:space="preserve">
<text transform="matrix(1 0 0 1 17.2456 79.2002)" fill="#010101" font-family="'MyriadPro-Regular'" font-size="12">Recruitment</text>
<polygon fill="#2C9ED9" points="42.492,37.491 47.069,37.491 46.356,41.001 43.205,41.001 "/>
<polygon fill="#2C9ED9" points="43.88,40.532 42.869,52.563 46.691,52.563 45.683,40.614 "/>
<path fill="none" stroke="#0D1F36" stroke-width="3" stroke-linecap="round" stroke-linejoin="round" stroke-miterlimit="10" d="
	M52.836,25.735c0,5.1-3.606,9.233-8.056,9.233c-4.448,0-8.054-4.133-8.054-9.233c0-5.099,3.605-9.232,8.054-9.232
	C49.229,16.503,52.836,20.637,52.836,25.735"/>
<ellipse fill="none" stroke="#0D1F36" stroke-width="3" stroke-linecap="round" stroke-linejoin="round" stroke-miterlimit="10" cx="44.781" cy="25.735" rx="8.055" ry="9.233"/>
<path fill="none" stroke="#0D1F36" stroke-width="3" stroke-linecap="round" stroke-linejoin="round" stroke-miterlimit="10" d="
	M51.12,37.491c0,0,12.316,2.367,12.036,15.833c0,0-17.174,8.079-36.74,0c0,0-0.915-12.976,12.105-15.833l5.266,14
	c0.38,1.01,1.614,1.013,1.998,0.006L51.12,37.491z"/>
<path fill="none" stroke="#0D1F36" stroke-width="3" stroke-linecap="round" stroke-linejoin="round" stroke-miterlimit="10" d="
	M51.12,37.491c0,0,12.316,2.367,12.036,15.833c0,0-17.174,8.079-36.74,0c0,0-0.915-12.976,12.105-15.833l5.266,14
	c0.38,1.01,1.614,1.013,1.998,0.006L51.12,37.491z"/>
<path fill="#FFFFFF" stroke="#1C5DAB" stroke-miterlimit="10" d="M73.4,46.073c3.577,4.422,2.892,10.905-1.53,14.481
	s-10.905,2.891-14.482-1.531c-3.575-4.421-2.89-10.904,1.531-14.48C63.341,40.967,69.823,41.652,73.4,46.073"/>
<circle fill="none" stroke="#33B34A" stroke-width="3" stroke-miterlimit="10" cx="65.394" cy="52.548" r="10.297"/>
<polyline fill="none" stroke="#1C5DAB" stroke-width="3" stroke-linecap="round" stroke-miterlimit="10" points="59.918,52.655 
	65.033,57.59 76.489,44.646 "/>
<polyline fill="#FFFFFF" stroke="#1C5DAB" stroke-miterlimit="10" points="59.918,52.655 65.033,57.59 76.489,44.646 "/>
<polyline fill="none" stroke="#33B34A" stroke-width="3" stroke-linecap="round" stroke-miterlimit="10" points="59.918,52.655 
	65.033,57.59 76.489,44.646 "/>
</svg>
